# xmcd CD database file
#
# Track frame offsets:
#	150
#	16285
#	32937
#	46065
#	61442
#	75617
#	88632
#	103065
#	117460
#	130815
#	147230
#	161787
#	177165
#	192982
#
# Disc length: 2741 seconds
#
# Revision: 1
# Processed by: cddbd v1.5.2PL0 Copyright (c) Steve Scherf et al.
# Submitted via: CDex 1.70beta2
#
DISCID=be0ab30e
DTITLE=Absolute Country - Eagles Country
DYEAR=1999
DGENRE=Blues
TTITLE0=Take It Easy
TTITLE1=Hotel California
TTITLE2=Desperado
TTITLE3=One Of These Nights
TTITLE4=Take It To The Limit
TTITLE5=Tequila Sunrise
TTITLE6=Lyin' Eyes
TTITLE7=Witchy Woman
TTITLE8=Peaceful Easy Feeling
TTITLE9=Best Of My Love
TTITLE10=New Kid In  Town
TTITLE11=Heartache Tonight
TTITLE12=I Can't Tell You Why
TTITLE13=James Dean
EXTD=YEAR: 1999
EXTT0=
EXTT1=
EXTT2=
EXTT3=
EXTT4=
EXTT5=
EXTT6=
EXTT7=
EXTT8=
EXTT9=
EXTT10=
EXTT11=
EXTT12=
EXTT13=
PLAYORDER=
